Coordinates
version=1
nRows=27
nColumns=12
inDegrees=yes

Units are S.I. units (second, meters, Newtons, ...)
Angles are in degrees

endheader
time	SC_y	SC_z	SC_x	AC_y	AC_z	AC_x	GH_y	GH_z	GH_yy	EL_x	PS_y
       0.0              -33.07           27.1          72.89          58.18         -13.26         -2.616         -9.403          55.72          97.92          45.02           14.0
   0.02951              -33.07           27.1          72.89          58.18         -13.26         -2.613         -9.424          55.71           97.9          45.04          14.01
   0.05902              -33.08           27.1          72.88          58.18         -13.26         -2.611         -9.446           55.7          97.87          45.05          14.02
   0.08853              -33.08          27.09          72.88          58.18         -13.25         -2.609          -9.47          55.69          97.85          45.06          14.03
     0.118              -33.09          27.09          72.87          58.17         -13.25         -2.606         -9.495          55.68          97.82          45.08          14.05
    0.1476              -33.09          27.09          72.86          58.17         -13.25         -2.604         -9.522          55.67          97.78          45.09          14.06
    0.1771              -33.09          27.09          72.86          58.17         -13.24         -2.601         -9.551          55.65          97.75          45.11          14.08
    0.2066               -33.1          27.09          72.85          58.17         -13.24         -2.598         -9.582          55.64          97.71          45.13          14.09
    0.2361              -33.11          27.09          72.84          58.16         -13.24         -2.594         -9.615          55.62          97.68          45.14          14.11
    0.2656              -33.11          27.09          72.84          58.16         -13.23         -2.591          -9.65           55.6          97.63          45.16          14.13
    0.2951              -33.12          27.09          72.83          58.15         -13.23         -2.587         -9.688          55.58          97.59          45.19          14.15
    0.3246              -33.13          27.09          72.82          58.15         -13.22         -2.583         -9.729          55.56          97.54          45.21          14.17
    0.3541              -33.13          27.08          72.81          58.15         -13.22         -2.578         -9.773          55.54          97.49          45.23          14.19
    0.3836              -33.14          27.08           72.8          58.14         -13.21         -2.573          -9.82          55.52          97.43          45.26          14.22
    0.4132              -33.15          27.08          72.79          58.14          -13.2         -2.568         -9.872          55.49          97.37          45.29          14.25
    0.4427              -33.16          27.08          72.77          58.13          -13.2         -2.563         -9.927          55.47          97.31          45.32          14.27
    0.4722              -33.17          27.08          72.76          58.12         -13.19         -2.556         -9.988          55.44          97.24          45.36          14.31
    0.5017              -33.18          27.07          72.75          58.12         -13.18          -2.55         -10.05           55.4          97.16          45.39          14.34
    0.5312               -33.2          27.07          72.73          58.11         -13.17         -2.542         -10.13          55.37          97.07          45.44          14.38
    0.5607              -33.21          27.07          72.71           58.1         -13.16         -2.534         -10.21          55.33          96.98          45.48          14.42
    0.5902              -33.22          27.07          72.69          58.09         -13.15         -2.526         -10.29          55.29          96.88          45.53          14.47
    0.6197              -33.24          27.06          72.67          58.08         -13.14         -2.516         -10.39          55.24          96.77          45.58          14.52
    0.6492              -33.26          27.06          72.65          58.07         -13.13         -2.505         -10.49          55.19          96.64          45.64          14.57
    0.6788              -33.28          27.06          72.62          58.06         -13.11         -2.494         -10.61          55.13           96.5          45.71          14.64
    0.7083               -33.3          27.05          72.59          58.05          -13.1          -2.48         -10.74          55.06          96.35          45.78           14.7
    0.7378              -33.33          27.05          72.56          58.03         -13.08         -2.466         -10.88          54.99          96.18          45.87          14.78
    0.7673              -33.36          27.04          72.53          58.01         -13.06         -2.449         -11.05          54.91          95.99          45.96          14.87
